<svg xmlns="http://www.w3.org/2000/svg" xmlns:xlink="http://www.w3.org/1999/xlink" width="500" zoomAndPan="magnify" viewBox="0 0 375 149.999998" height="200" preserveAspectRatio="xMidYMid meet" version="1.0"><defs><g/></defs><g fill="#007878" fill-opacity="1"><g transform="translate(28.074885, 112.364384)"><g><path d="M 64.0625 -95.078125 L 73.5625 -82.453125 L 71.4375 -12.765625 L 61.671875 -1.25 L 2.5 0.125 L 3.25 -100.09375 Z M 28.90625 -75.8125 L 29.90625 -20.265625 L 47.296875 -24.140625 L 48.171875 -70.3125 Z M 28.90625 -75.8125 "/></g></g></g><g fill="#007878" fill-opacity="1"><g transform="translate(104.167703, 97.515874)"><g><path d="M 20.90625 -9.59375 L 30.71875 -8.953125 L 31.25 -5.09375 L 28.46875 -0.375 L 4.875 -0.046875 L 1.34375 -2.140625 L 1.078125 -27.9375 L 4.390625 -31.421875 L 27.609375 -30.9375 L 31.625 -28.203125 L 30.671875 -13.453125 L 27.5 -11.3125 L 12.546875 -11.734375 L 12.390625 -8.15625 L 20 -7.671875 Z M 20.203125 -17.203125 L 19.890625 -22.625 L 12.171875 -22.9375 L 12.21875 -17.90625 Z M 20.203125 -17.203125 "/></g></g></g><g fill="#007878" fill-opacity="1"><g transform="translate(135.787323, 97.515874)"><g><path d="M 28.625 -18.4375 L 30.984375 -13.78125 L 30.5625 -2.515625 L 27.5 -0.265625 L 27.1875 -0.265625 L 3.328125 0 L 1.078125 -2.46875 L 1.828125 -11.265625 L 10.78125 -11.203125 L 11.53125 -8.46875 L 20.15625 -8.46875 L 20.375 -12.484375 L 3.90625 -13.890625 L 1.390625 -15.921875 L 1.65625 -28.734375 L 3.859375 -30.671875 L 26.328125 -31.359375 L 30.234375 -29.96875 L 30.71875 -22.46875 L 28.6875 -20.96875 L 21.28125 -20.6875 L 20.046875 -23.640625 L 12.65625 -23.3125 L 12.0625 -19.78125 Z M 28.625 -18.4375 "/></g></g></g><g fill="#007878" fill-opacity="1"><g transform="translate(167.299859, 97.515874)"><g><path d="M 31.359375 -29.15625 L 31.734375 0 L 24.390625 0.046875 L 23.265625 -1.828125 L 22.03125 0 L 5.09375 -0.15625 L 1.078125 -3.109375 L 2.03125 -17.046875 L 5.140625 -19.1875 L 20.15625 -19.453125 L 20.3125 -23.109375 L 12.703125 -23.640625 L 11.796875 -21.65625 L 1.984375 -22.296875 L 1.453125 -26.15625 L 4.234375 -30.875 L 27.828125 -31.203125 Z M 20.53125 -8.359375 L 20.484375 -13.296875 L 12.484375 -13.1875 L 12.8125 -8.6875 Z M 20.53125 -8.359375 "/></g></g></g><g fill="#007878" fill-opacity="1"><g transform="translate(199.562712, 97.515874)"><g><path d="M 31.421875 -29.21875 L 31.515625 -2.78125 L 29.21875 -0.109375 L 12.59375 -0.328125 L 12.28125 12.109375 L 1.078125 13.78125 L 1.390625 -30.828125 L 8.25 -30.984375 L 9.171875 -29.328125 L 10.5 -30.828125 L 29.265625 -31.3125 Z M 13.140625 -22.03125 L 12.921875 -8.46875 L 20.203125 -9.0625 L 20.203125 -21.34375 Z M 13.140625 -22.03125 "/></g></g></g><g fill="#007878" fill-opacity="1"><g transform="translate(232.14722, 97.515874)"><g><path d="M 20.90625 -9.59375 L 30.71875 -8.953125 L 31.25 -5.09375 L 28.46875 -0.375 L 4.875 -0.046875 L 1.34375 -2.140625 L 1.078125 -27.9375 L 4.390625 -31.421875 L 27.609375 -30.9375 L 31.625 -28.203125 L 30.671875 -13.453125 L 27.5 -11.3125 L 12.546875 -11.734375 L 12.390625 -8.15625 L 20 -7.671875 Z M 20.203125 -17.203125 L 19.890625 -22.625 L 12.171875 -22.9375 L 12.21875 -17.90625 Z M 20.203125 -17.203125 "/></g></g></g><g fill="#007878" fill-opacity="1"><g transform="translate(264.302874, 97.515874)"><g><path d="M 24.71875 -31.421875 L 31.515625 -31.578125 L 31.3125 10.71875 L 27.875 13.671875 L 4.1875 13.1875 L 1.546875 9.0625 L 1.9375 3.703125 L 3.109375 1.71875 L 11.84375 1.546875 L 12.921875 5.09375 L 20.265625 4.5 L 20.109375 -0.796875 L 4.875 -0.046875 L 1.828125 -3.0625 L 1.078125 -26.859375 L 4.875 -31.359375 L 22.296875 -31.25 L 23.484375 -29.640625 Z M 12.109375 -21.71875 L 12.390625 -9.703125 L 19.9375 -10.078125 L 20.046875 -22.1875 Z M 12.109375 -21.71875 "/></g></g></g><g fill="#007878" fill-opacity="1"><g transform="translate(296.351348, 97.515874)"><g><path d="M 31.359375 -29.15625 L 31.734375 0 L 24.390625 0.046875 L 23.265625 -1.828125 L 22.03125 0 L 5.09375 -0.15625 L 1.078125 -3.109375 L 2.03125 -17.046875 L 5.140625 -19.1875 L 20.15625 -19.453125 L 20.3125 -23.109375 L 12.703125 -23.640625 L 11.796875 -21.65625 L 1.984375 -22.296875 L 1.453125 -26.15625 L 4.234375 -30.875 L 27.828125 -31.203125 Z M 20.53125 -8.359375 L 20.484375 -13.296875 L 12.484375 -13.1875 L 12.8125 -8.6875 Z M 20.53125 -8.359375 "/></g></g></g><g fill="#007878" fill-opacity="1"><g transform="translate(328.614201, 97.515874)"><g><path d="M 1.078125 -0.109375 L 1.34375 -31.359375 L 12.96875 -31.359375 L 11.53125 -0.640625 Z M 15.703125 -40.203125 L 8.625 -33.296875 L 5.25 -35.921875 L 10.78125 -44.4375 Z M 15.703125 -40.203125 "/></g></g></g></svg>