<svg xmlns="http://www.w3.org/2000/svg" xmlns:xlink="http://www.w3.org/1999/xlink" width="500" zoomAndPan="magnify" viewBox="0 0 375 374.999991" height="500" preserveAspectRatio="xMidYMid meet" version="1.0"><defs><clipPath id="17ca530469"><path d="M 68 69 L 321 69 L 321 363.359375 L 68 363.359375 Z M 68 69 " clip-rule="nonzero"/></clipPath></defs><path fill="#ffffff" d="M 114.496094 55.625 L 110.78125 81.066406 C 110.53125 82.816406 110.484375 84.570312 110.640625 86.332031 C 110.792969 88.09375 111.148438 89.8125 111.703125 91.492188 C 112.253906 93.171875 112.992188 94.765625 113.914062 96.273438 C 114.835938 97.78125 115.917969 99.164062 117.160156 100.421875 L 137.152344 120.5625 C 137.554688 120.964844 137.972656 121.347656 138.410156 121.710938 C 138.847656 122.074219 139.304688 122.414062 139.773438 122.730469 C 140.246094 123.050781 140.730469 123.34375 141.230469 123.613281 C 141.730469 123.886719 142.242188 124.132812 142.765625 124.351562 C 143.289062 124.574219 143.820312 124.769531 144.363281 124.9375 C 144.90625 125.105469 145.457031 125.25 146.011719 125.363281 C 146.570312 125.480469 147.128906 125.566406 147.695312 125.628906 C 148.261719 125.6875 148.828125 125.722656 149.394531 125.726562 C 149.964844 125.734375 150.53125 125.710938 151.097656 125.660156 C 151.664062 125.609375 152.226562 125.535156 152.785156 125.429688 C 153.34375 125.324219 153.894531 125.191406 154.441406 125.035156 C 154.988281 124.875 155.523438 124.691406 156.050781 124.480469 C 156.578125 124.269531 157.09375 124.035156 157.601562 123.773438 C 158.105469 123.511719 158.597656 123.226562 159.074219 122.917969 C 159.550781 122.609375 160.011719 122.277344 160.457031 121.921875 C 160.898438 121.570312 161.328125 121.195312 161.734375 120.796875 C 162.140625 120.402344 162.53125 119.988281 162.898438 119.554688 C 163.265625 119.121094 163.613281 118.671875 163.933594 118.203125 C 164.257812 117.738281 164.558594 117.253906 164.835938 116.757812 C 165.113281 116.261719 165.367188 115.753906 165.59375 115.234375 C 165.820312 114.710938 166.019531 114.179688 166.195312 113.640625 C 166.371094 113.101562 166.519531 112.550781 166.644531 111.996094 C 166.765625 111.441406 166.859375 110.882812 166.925781 110.316406 C 166.996094 109.753906 167.035156 109.1875 167.046875 108.621094 C 167.058594 108.050781 167.042969 107.484375 167 106.917969 C 166.957031 106.351562 166.886719 105.785156 166.789062 105.226562 C 166.691406 104.667969 166.566406 104.113281 166.414062 103.566406 C 166.261719 103.019531 166.085938 102.480469 165.878906 101.949219 C 165.675781 101.417969 165.445312 100.898438 165.191406 100.390625 C 164.9375 99.882812 164.65625 99.390625 164.351562 98.910156 C 164.050781 98.429688 163.722656 97.964844 163.375 97.515625 C 163.027344 97.066406 162.65625 96.636719 162.265625 96.222656 L 151.351562 84.6875 C 150.597656 83.898438 149.945312 83.035156 149.390625 82.09375 C 148.835938 81.15625 148.394531 80.164062 148.066406 79.125 C 147.734375 78.085938 147.527344 77.023438 147.441406 75.933594 C 147.355469 74.847656 147.390625 73.765625 147.550781 72.683594 L 149.316406 60.613281 C 150.109375 60.410156 150.855469 60.09375 151.554688 59.667969 C 152.253906 59.242188 152.875 58.726562 153.421875 58.117188 C 153.96875 57.507812 154.414062 56.832031 154.761719 56.09375 C 155.109375 55.351562 155.34375 54.574219 155.460938 53.765625 L 156.035156 49.835938 C 156.113281 49.296875 156.136719 48.753906 156.109375 48.207031 C 156.082031 47.664062 156 47.125 155.867188 46.597656 C 155.730469 46.066406 155.546875 45.558594 155.3125 45.0625 C 155.078125 44.570312 154.796875 44.105469 154.472656 43.667969 C 154.144531 43.230469 153.78125 42.828125 153.375 42.464844 C 152.96875 42.097656 152.53125 41.777344 152.0625 41.496094 C 151.59375 41.21875 151.101562 40.984375 150.585938 40.804688 C 150.074219 40.621094 149.546875 40.492188 149.003906 40.410156 L 120.347656 36.226562 C 119.804688 36.148438 119.265625 36.121094 118.71875 36.152344 C 118.171875 36.179688 117.636719 36.261719 117.105469 36.394531 C 116.578125 36.527344 116.066406 36.710938 115.574219 36.945312 C 115.082031 37.179688 114.617188 37.460938 114.179688 37.789062 C 113.742188 38.113281 113.339844 38.480469 112.972656 38.886719 C 112.605469 39.289062 112.285156 39.726562 112.003906 40.195312 C 111.726562 40.664062 111.496094 41.15625 111.3125 41.671875 C 111.128906 42.1875 111 42.714844 110.917969 43.253906 L 110.347656 47.183594 C 110.226562 48.011719 110.230469 48.84375 110.359375 49.671875 C 110.488281 50.5 110.738281 51.292969 111.109375 52.046875 C 111.480469 52.800781 111.953125 53.480469 112.53125 54.089844 C 113.109375 54.699219 113.761719 55.210938 114.496094 55.621094 Z M 120.953125 87.722656 L 120.492188 90.894531 C 119.449219 88.835938 118.925781 86.652344 118.921875 84.34375 C 119.257812 84.464844 119.566406 84.636719 119.847656 84.867188 C 120.125 85.09375 120.355469 85.359375 120.542969 85.667969 C 120.726562 85.976562 120.855469 86.308594 120.925781 86.660156 C 120.996094 87.011719 121.007812 87.367188 120.953125 87.722656 Z M 153.296875 98.925781 L 156.1875 101.976562 C 156.625 102.441406 157.011719 102.941406 157.34375 103.484375 C 157.675781 104.027344 157.945312 104.597656 158.160156 105.199219 C 158.371094 105.796875 158.519531 106.414062 158.605469 107.042969 C 158.6875 107.675781 158.707031 108.304688 158.65625 108.941406 C 158.609375 109.574219 158.496094 110.199219 158.316406 110.808594 C 158.136719 111.417969 157.898438 112.003906 157.597656 112.566406 C 157.292969 113.125 156.9375 113.648438 156.527344 114.132812 C 156.117188 114.621094 155.660156 115.058594 155.15625 115.449219 C 154.722656 115.785156 154.257812 116.082031 153.769531 116.335938 C 153.277344 116.589844 152.769531 116.796875 152.242188 116.960938 C 151.714844 117.121094 151.175781 117.234375 150.628906 117.300781 C 150.078125 117.363281 149.527344 117.378906 148.976562 117.34375 C 148.425781 117.308594 147.882812 117.222656 147.347656 117.089844 C 146.8125 116.953125 146.292969 116.773438 145.789062 116.542969 C 145.289062 116.316406 144.808594 116.042969 144.355469 115.730469 C 143.902344 115.414062 143.480469 115.0625 143.09375 114.667969 L 138.964844 110.511719 Z M 147.527344 92.828125 L 133.039062 104.535156 L 127.738281 99.195312 L 129.238281 88.929688 C 129.34375 88.203125 129.378906 87.472656 129.347656 86.738281 C 129.3125 86.003906 129.207031 85.28125 129.035156 84.566406 C 128.863281 83.851562 128.625 83.164062 128.316406 82.496094 C 128.011719 81.828125 127.644531 81.195312 127.214844 80.597656 C 126.789062 80 126.308594 79.449219 125.773438 78.945312 C 125.242188 78.441406 124.664062 77.992188 124.042969 77.597656 C 123.425781 77.203125 122.773438 76.871094 122.089844 76.605469 C 121.40625 76.335938 120.703125 76.136719 119.980469 76.003906 L 122.699219 57.386719 L 140.941406 60.046875 L 139.273438 71.476562 C 139.019531 73.179688 138.960938 74.890625 139.097656 76.609375 C 139.234375 78.328125 139.5625 80.007812 140.082031 81.652344 C 140.601562 83.292969 141.300781 84.859375 142.175781 86.34375 C 143.050781 87.824219 144.082031 89.191406 145.269531 90.441406 Z M 119.191406 44.515625 L 147.742188 48.683594 L 147.183594 52.503906 L 118.636719 48.335938 Z M 119.191406 44.515625 " fill-opacity="1" fill-rule="nonzero"/><path fill="#ffffff" d="M 158.484375 40.027344 L 154.773438 65.46875 C 154.523438 67.21875 154.472656 68.972656 154.628906 70.734375 C 154.785156 72.496094 155.140625 74.214844 155.691406 75.894531 C 156.246094 77.574219 156.984375 79.167969 157.90625 80.675781 C 158.828125 82.183594 159.910156 83.566406 161.152344 84.824219 L 181.144531 104.964844 C 181.542969 105.367188 181.964844 105.75 182.402344 106.109375 C 182.839844 106.472656 183.292969 106.8125 183.765625 107.128906 C 184.234375 107.445312 184.722656 107.738281 185.21875 108.011719 C 185.71875 108.28125 186.230469 108.527344 186.753906 108.746094 C 187.277344 108.964844 187.8125 109.160156 188.355469 109.328125 C 188.894531 109.496094 189.445312 109.640625 190 109.753906 C 190.558594 109.867188 191.117188 109.957031 191.683594 110.015625 C 192.246094 110.078125 192.8125 110.109375 193.382812 110.113281 C 193.949219 110.121094 194.515625 110.097656 195.082031 110.046875 C 195.648438 109.996094 196.210938 109.921875 196.769531 109.816406 C 197.328125 109.710938 197.878906 109.578125 198.421875 109.421875 C 198.96875 109.261719 199.503906 109.078125 200.03125 108.867188 C 200.558594 108.65625 201.074219 108.417969 201.578125 108.15625 C 202.085938 107.898438 202.574219 107.613281 203.050781 107.304688 C 203.527344 106.996094 203.988281 106.664062 204.433594 106.308594 C 204.878906 105.957031 205.304688 105.582031 205.710938 105.1875 C 206.117188 104.789062 206.507812 104.375 206.875 103.941406 C 207.242188 103.511719 207.585938 103.058594 207.910156 102.59375 C 208.234375 102.125 208.535156 101.644531 208.8125 101.148438 C 209.085938 100.652344 209.339844 100.144531 209.566406 99.625 C 209.792969 99.105469 209.996094 98.574219 210.171875 98.035156 C 210.347656 97.492188 210.496094 96.945312 210.617188 96.390625 C 210.738281 95.835938 210.835938 95.277344 210.902344 94.714844 C 210.96875 94.148438 211.011719 93.585938 211.023438 93.015625 C 211.035156 92.449219 211.019531 91.882812 210.976562 91.316406 C 210.9375 90.75 210.867188 90.1875 210.769531 89.625 C 210.671875 89.066406 210.546875 88.515625 210.394531 87.964844 C 210.242188 87.417969 210.066406 86.878906 209.863281 86.351562 C 209.65625 85.820312 209.429688 85.300781 209.175781 84.792969 C 208.917969 84.285156 208.640625 83.792969 208.339844 83.3125 C 208.035156 82.832031 207.710938 82.367188 207.363281 81.917969 C 207.015625 81.46875 206.644531 81.035156 206.257812 80.625 L 195.34375 69.089844 C 194.59375 68.300781 193.941406 67.433594 193.386719 66.496094 C 192.832031 65.558594 192.386719 64.566406 192.058594 63.527344 C 191.730469 62.488281 191.523438 61.421875 191.4375 60.335938 C 191.347656 59.25 191.386719 58.164062 191.546875 57.085938 L 193.304688 45.015625 C 194.097656 44.808594 194.84375 44.496094 195.542969 44.070312 C 196.242188 43.644531 196.863281 43.125 197.410156 42.515625 C 197.957031 41.910156 198.402344 41.234375 198.75 40.492188 C 199.097656 39.75 199.332031 38.976562 199.449219 38.164062 L 200.023438 34.238281 C 200.101562 33.695312 200.125 33.152344 200.097656 32.609375 C 200.070312 32.0625 199.988281 31.527344 199.855469 30.996094 C 199.722656 30.46875 199.535156 29.957031 199.300781 29.464844 C 199.066406 28.972656 198.789062 28.507812 198.460938 28.066406 C 198.136719 27.628906 197.769531 27.230469 197.363281 26.863281 C 196.957031 26.496094 196.523438 26.175781 196.050781 25.894531 C 195.582031 25.617188 195.09375 25.386719 194.578125 25.203125 C 194.0625 25.019531 193.535156 24.890625 192.996094 24.808594 L 164.335938 20.625 C 163.796875 20.546875 163.253906 20.519531 162.710938 20.550781 C 162.164062 20.578125 161.625 20.660156 161.097656 20.792969 C 160.570312 20.925781 160.058594 21.109375 159.5625 21.34375 C 159.070312 21.578125 158.605469 21.859375 158.167969 22.1875 C 157.730469 22.511719 157.328125 22.878906 156.964844 23.285156 C 156.597656 23.6875 156.273438 24.125 155.996094 24.59375 C 155.714844 25.0625 155.484375 25.554688 155.300781 26.070312 C 155.121094 26.585938 154.988281 27.113281 154.910156 27.652344 L 154.335938 31.582031 C 154.214844 32.410156 154.21875 33.242188 154.351562 34.070312 C 154.480469 34.898438 154.730469 35.691406 155.101562 36.445312 C 155.472656 37.199219 155.945312 37.878906 156.523438 38.488281 C 157.097656 39.097656 157.753906 39.609375 158.484375 40.019531 Z M 164.945312 72.125 L 164.480469 75.296875 C 163.4375 73.238281 162.914062 71.054688 162.910156 68.746094 C 163.25 68.867188 163.558594 69.042969 163.835938 69.269531 C 164.113281 69.496094 164.34375 69.765625 164.53125 70.070312 C 164.714844 70.378906 164.84375 70.710938 164.914062 71.0625 C 164.988281 71.414062 164.996094 71.765625 164.945312 72.125 Z M 197.289062 83.324219 L 200.179688 86.375 C 200.617188 86.839844 201 87.339844 201.332031 87.882812 C 201.664062 88.425781 201.9375 88.996094 202.148438 89.597656 C 202.363281 90.195312 202.511719 90.8125 202.59375 91.441406 C 202.679688 92.074219 202.695312 92.707031 202.648438 93.339844 C 202.597656 93.972656 202.484375 94.597656 202.308594 95.207031 C 202.128906 95.816406 201.886719 96.402344 201.585938 96.964844 C 201.285156 97.523438 200.929688 98.046875 200.519531 98.53125 C 200.109375 99.019531 199.652344 99.457031 199.148438 99.847656 C 198.710938 100.183594 198.25 100.480469 197.757812 100.734375 C 197.269531 100.988281 196.757812 101.195312 196.230469 101.359375 C 195.703125 101.519531 195.164062 101.632812 194.617188 101.699219 C 194.070312 101.761719 193.519531 101.777344 192.96875 101.742188 C 192.417969 101.707031 191.875 101.621094 191.339844 101.488281 C 190.804688 101.351562 190.285156 101.171875 189.78125 100.941406 C 189.277344 100.714844 188.800781 100.441406 188.347656 100.128906 C 187.894531 99.8125 187.472656 99.460938 187.082031 99.066406 L 182.957031 94.910156 Z M 191.519531 77.226562 L 177.03125 88.9375 L 171.730469 83.597656 L 173.226562 73.328125 C 173.332031 72.601562 173.367188 71.875 173.332031 71.140625 C 173.296875 70.40625 173.191406 69.683594 173.015625 68.972656 C 172.84375 68.257812 172.601562 67.570312 172.296875 66.902344 C 171.992188 66.234375 171.625 65.601562 171.195312 65.007812 C 170.769531 64.410156 170.289062 63.859375 169.753906 63.355469 C 169.222656 62.851562 168.648438 62.402344 168.027344 62.007812 C 167.410156 61.613281 166.757812 61.28125 166.074219 61.011719 C 165.390625 60.742188 164.691406 60.539062 163.96875 60.40625 L 166.6875 41.785156 L 184.933594 44.445312 L 183.265625 55.875 C 183.011719 57.578125 182.953125 59.292969 183.089844 61.007812 C 183.226562 62.726562 183.554688 64.40625 184.074219 66.050781 C 184.59375 67.695312 185.292969 69.257812 186.167969 70.742188 C 187.042969 72.226562 188.074219 73.589844 189.261719 74.839844 Z M 163.183594 28.921875 L 191.734375 33.089844 L 191.175781 36.90625 L 162.625 32.742188 Z M 162.570312 32.730469 L 161.972656 36.824219 Z M 162.570312 32.730469 " fill-opacity="1" fill-rule="nonzero"/><g clip-path="url(#17ca530469)"><path fill="#ffffff" d="M 110.292969 184.351562 L 124.445312 190.484375 C 124.699219 190.59375 124.964844 190.679688 125.238281 190.734375 C 125.511719 190.792969 125.789062 190.824219 126.066406 190.828125 C 126.347656 190.828125 126.625 190.804688 126.898438 190.753906 C 127.171875 190.699219 127.4375 190.621094 127.699219 190.515625 C 127.957031 190.40625 128.203125 190.277344 128.433594 190.121094 C 128.664062 189.964844 128.878906 189.789062 129.078125 189.589844 C 129.273438 189.394531 129.449219 189.175781 129.601562 188.945312 C 129.757812 188.710938 129.886719 188.464844 129.988281 188.203125 L 131.382812 184.734375 L 133.167969 189.34375 L 91.78125 203.300781 C 90.71875 203.65625 89.929688 204.328125 89.414062 205.316406 L 68.855469 244.433594 C 68.726562 244.679688 68.625 244.929688 68.546875 245.191406 C 68.46875 245.457031 68.417969 245.722656 68.390625 245.996094 C 68.367188 246.269531 68.367188 246.542969 68.394531 246.8125 C 68.425781 247.085938 68.480469 247.351562 68.558594 247.613281 C 68.640625 247.875 68.746094 248.128906 68.875 248.371094 C 69.003906 248.609375 69.15625 248.835938 69.332031 249.046875 C 69.507812 249.257812 69.699219 249.449219 69.914062 249.625 C 70.125 249.796875 70.351562 249.949219 70.59375 250.078125 L 90.941406 260.898438 L 90.941406 311.128906 C 90.945312 311.929688 91.15625 312.671875 91.582031 313.351562 C 92.007812 314.03125 92.582031 314.542969 93.304688 314.894531 L 192.433594 362.824219 C 193.007812 363.101562 193.617188 363.242188 194.253906 363.242188 C 194.894531 363.242188 195.5 363.101562 196.078125 362.824219 L 295.207031 314.894531 C 295.929688 314.542969 296.503906 314.03125 296.929688 313.351562 C 297.355469 312.671875 297.570312 311.929688 297.570312 311.128906 L 297.570312 260.898438 L 317.914062 250.078125 C 318.15625 249.949219 318.386719 249.796875 318.597656 249.625 C 318.808594 249.453125 319.003906 249.257812 319.179688 249.046875 C 319.351562 248.835938 319.503906 248.613281 319.636719 248.371094 C 319.765625 248.128906 319.871094 247.878906 319.953125 247.617188 C 320.035156 247.355469 320.089844 247.085938 320.117188 246.816406 C 320.144531 246.542969 320.144531 246.269531 320.121094 245.996094 C 320.097656 245.722656 320.042969 245.457031 319.96875 245.195312 C 319.890625 244.929688 319.785156 244.679688 319.660156 244.433594 L 299.097656 205.320312 C 298.578125 204.328125 297.789062 203.65625 296.726562 203.300781 L 248.285156 186.988281 L 284.078125 88.832031 C 284.171875 88.574219 284.242188 88.3125 284.285156 88.039062 C 284.324219 87.769531 284.339844 87.496094 284.328125 87.21875 C 284.316406 86.945312 284.277344 86.675781 284.214844 86.40625 C 284.148438 86.140625 284.058594 85.882812 283.941406 85.632812 C 283.824219 85.382812 283.6875 85.148438 283.523438 84.925781 C 283.363281 84.707031 283.179688 84.503906 282.976562 84.316406 C 282.773438 84.128906 282.554688 83.964844 282.320312 83.824219 C 282.085938 83.679688 281.839844 83.5625 281.582031 83.46875 L 243.886719 69.71875 C 243.625 69.625 243.363281 69.554688 243.089844 69.511719 C 242.820312 69.472656 242.546875 69.457031 242.269531 69.46875 C 241.996094 69.476562 241.726562 69.515625 241.457031 69.582031 C 241.191406 69.648438 240.933594 69.738281 240.683594 69.851562 C 240.433594 69.96875 240.199219 70.109375 239.976562 70.269531 C 239.753906 70.433594 239.550781 70.613281 239.363281 70.816406 C 239.179688 71.019531 239.011719 71.238281 238.871094 71.472656 C 238.726562 71.707031 238.609375 71.957031 238.515625 72.214844 L 234.003906 84.585938 L 212.832031 110.320312 C 212.230469 111.054688 211.914062 111.898438 211.882812 112.847656 L 210.9375 142.359375 C 210.460938 157.261719 207.890625 171.789062 203.226562 185.949219 L 200.578125 194.402344 L 188.121094 163.453125 L 189.835938 164.382812 C 190.316406 164.644531 190.828125 164.804688 191.375 164.867188 C 191.917969 164.925781 192.453125 164.882812 192.980469 164.730469 C 193.507812 164.582031 193.988281 164.335938 194.417969 164 C 194.847656 163.660156 195.199219 163.253906 195.472656 162.777344 L 203.128906 149.328125 C 203.265625 149.089844 203.375 148.839844 203.460938 148.582031 C 203.550781 148.320312 203.609375 148.054688 203.644531 147.78125 C 203.679688 147.507812 203.683594 147.234375 203.664062 146.960938 C 203.644531 146.6875 203.601562 146.417969 203.527344 146.152344 C 203.457031 145.890625 203.359375 145.632812 203.234375 145.386719 C 203.113281 145.144531 202.964844 144.910156 202.796875 144.695312 C 202.628906 144.476562 202.441406 144.277344 202.234375 144.097656 C 202.027344 143.917969 201.804688 143.761719 201.566406 143.625 L 167.816406 124.375 C 167.265625 124.0625 166.675781 123.882812 166.042969 123.835938 C 165.410156 123.792969 164.796875 123.886719 164.207031 124.117188 L 122.367188 140.628906 C 121.792969 140.855469 121.289062 141.195312 120.863281 141.644531 C 120.4375 142.097656 120.128906 142.617188 119.933594 143.203125 L 107.984375 179.195312 C 107.820312 179.691406 107.75 180.203125 107.777344 180.722656 C 107.804688 181.246094 107.925781 181.746094 108.136719 182.222656 C 108.351562 182.699219 108.644531 183.121094 109.015625 183.488281 C 109.386719 183.855469 109.8125 184.144531 110.292969 184.351562 Z M 78.199219 244.644531 L 94.914062 212.839844 L 188.640625 259.644531 L 171.367188 294.1875 Z M 190.070312 352.386719 L 99.3125 308.503906 L 99.3125 265.347656 L 171.230469 303.589844 C 171.476562 303.722656 171.734375 303.828125 172 303.90625 C 172.269531 303.984375 172.542969 304.039062 172.820312 304.0625 C 173.097656 304.085938 173.375 304.085938 173.652344 304.054688 C 173.929688 304.023438 174.203125 303.964844 174.46875 303.882812 C 174.734375 303.796875 174.988281 303.6875 175.234375 303.550781 C 175.476562 303.414062 175.703125 303.253906 175.917969 303.074219 C 176.128906 302.890625 176.320312 302.691406 176.492188 302.472656 C 176.664062 302.25 176.8125 302.015625 176.9375 301.765625 L 190.074219 275.496094 Z M 289.199219 308.503906 L 198.4375 352.386719 L 198.4375 275.496094 L 211.574219 301.765625 C 211.699219 302.015625 211.847656 302.25 212.019531 302.472656 C 212.191406 302.691406 212.382812 302.890625 212.597656 303.074219 C 212.808594 303.253906 213.035156 303.414062 213.28125 303.550781 C 213.523438 303.6875 213.777344 303.796875 214.042969 303.882812 C 214.308594 303.964844 214.582031 304.023438 214.859375 304.054688 C 215.136719 304.085938 215.414062 304.085938 215.691406 304.0625 C 215.96875 304.039062 216.242188 303.984375 216.511719 303.90625 C 216.777344 303.828125 217.035156 303.722656 217.28125 303.589844 L 289.199219 265.347656 Z M 310.308594 244.644531 L 217.140625 294.1875 L 199.871094 259.644531 L 293.59375 212.839844 Z M 244.945312 79.015625 L 274.78125 89.894531 L 273.039062 94.671875 L 243.203125 83.792969 Z M 211.199219 188.507812 C 216.101562 173.601562 218.804688 158.308594 219.304688 142.628906 L 220.203125 114.535156 L 239.332031 91.289062 L 270.171875 102.535156 L 227.480469 219.605469 L 204.125 211.085938 Z M 197.5 217.578125 L 228.542969 228.902344 C 228.800781 228.996094 229.066406 229.0625 229.335938 229.105469 C 229.609375 229.148438 229.882812 229.160156 230.15625 229.148438 C 230.429688 229.136719 230.699219 229.101562 230.96875 229.035156 C 231.234375 228.96875 231.492188 228.878906 231.742188 228.761719 C 231.992188 228.648438 232.226562 228.507812 232.449219 228.347656 C 232.667969 228.183594 232.875 228 233.058594 227.796875 C 233.246094 227.597656 233.410156 227.378906 233.550781 227.144531 C 233.695312 226.90625 233.8125 226.660156 233.90625 226.402344 L 245.414062 194.847656 L 284.515625 208.019531 L 194.253906 253.09375 L 103.988281 208.015625 L 136.191406 197.15625 L 145.828125 222.082031 C 145.929688 222.339844 146.050781 222.585938 146.199219 222.816406 C 146.347656 223.050781 146.519531 223.265625 146.710938 223.464844 C 146.898438 223.664062 147.109375 223.84375 147.335938 224.003906 C 147.5625 224.160156 147.800781 224.296875 148.054688 224.40625 C 148.304688 224.515625 148.566406 224.601562 148.835938 224.660156 C 149.105469 224.71875 149.378906 224.75 149.65625 224.757812 C 149.929688 224.761719 150.203125 224.738281 150.476562 224.691406 C 150.75 224.640625 151.011719 224.566406 151.269531 224.464844 L 196.789062 206.503906 L 194.941406 212.398438 C 194.78125 212.914062 194.71875 213.4375 194.761719 213.972656 C 194.804688 214.511719 194.945312 215.019531 195.183594 215.503906 C 195.421875 215.984375 195.742188 216.40625 196.140625 216.765625 C 196.542969 217.125 196.996094 217.394531 197.5 217.582031 Z M 141.402344 187.429688 L 182.265625 171.304688 L 186.039062 180.683594 L 145.050781 196.859375 Z M 189.164062 188.449219 L 193.355469 198.859375 L 152.117188 215.132812 L 148.070312 204.667969 Z M 153.621094 137.285156 C 153.578125 138.113281 153.417969 138.917969 153.148438 139.699219 C 152.878906 140.480469 152.507812 141.210938 152.03125 141.886719 C 151.558594 142.566406 151 143.164062 150.355469 143.6875 C 149.714844 144.207031 149.011719 144.628906 148.25 144.953125 C 147.167969 145.375 146.042969 145.5625 144.878906 145.519531 C 143.71875 145.472656 142.613281 145.199219 141.5625 144.699219 C 140.644531 144.273438 139.8125 143.71875 139.074219 143.027344 Z M 127.257812 147.691406 L 130.875 146.261719 C 132.722656 148.933594 135.121094 150.945312 138.070312 152.304688 C 140.34375 153.359375 142.734375 153.894531 145.242188 153.902344 C 147.34375 153.898438 149.371094 153.511719 151.328125 152.738281 C 158.824219 149.78125 163.007812 141.917969 161.859375 134.035156 L 165.414062 132.632812 L 193.789062 148.820312 L 190.230469 155.070312 L 181.898438 150.535156 C 181.519531 150.332031 181.121094 150.1875 180.699219 150.105469 C 180.273438 150.023438 179.847656 150.007812 179.421875 150.054688 C 178.992188 150.105469 178.582031 150.21875 178.1875 150.394531 C 177.796875 150.570312 177.4375 150.800781 177.117188 151.089844 C 176.796875 151.375 176.523438 151.703125 176.304688 152.074219 C 176.082031 152.445312 175.925781 152.839844 175.828125 153.257812 C 175.726562 153.675781 175.695312 154.101562 175.726562 154.53125 C 175.761719 154.960938 175.859375 155.375 176.019531 155.773438 L 179.144531 163.539062 L 138.386719 179.621094 L 135.367188 171.820312 C 135.214844 171.429688 135.011719 171.066406 134.75 170.738281 C 134.492188 170.410156 134.1875 170.125 133.84375 169.886719 C 133.496094 169.648438 133.125 169.464844 132.722656 169.339844 C 132.324219 169.214844 131.914062 169.148438 131.492188 169.144531 L 131.464844 169.144531 C 131.046875 169.144531 130.640625 169.207031 130.238281 169.328125 C 129.839844 169.453125 129.46875 169.628906 129.121094 169.863281 C 128.777344 170.097656 128.472656 170.375 128.210938 170.699219 C 127.949219 171.027344 127.738281 171.382812 127.582031 171.769531 L 123.832031 181.09375 L 117.136719 178.195312 Z M 127.257812 147.691406 " fill-opacity="1" fill-rule="nonzero"/></g><path fill="#ffffff" d="M 238.519531 129.578125 C 238.761719 129.90625 239.046875 130.191406 239.375 130.4375 C 239.703125 130.679688 240.058594 130.875 240.445312 131.015625 C 240.828125 131.152344 241.226562 131.234375 241.632812 131.261719 C 242.042969 131.285156 242.445312 131.25 242.84375 131.15625 L 255.015625 128.269531 C 255.699219 128.109375 256.304688 127.792969 256.828125 127.324219 C 257.355469 126.859375 257.738281 126.292969 257.980469 125.632812 L 264.351562 108.160156 C 264.445312 107.902344 264.515625 107.636719 264.558594 107.363281 C 264.597656 107.09375 264.613281 106.820312 264.601562 106.546875 C 264.589844 106.269531 264.550781 106 264.488281 105.734375 C 264.421875 105.464844 264.332031 105.207031 264.214844 104.960938 C 264.097656 104.710938 263.960938 104.472656 263.796875 104.253906 C 263.636719 104.03125 263.453125 103.828125 263.25 103.640625 C 263.046875 103.457031 262.828125 103.292969 262.59375 103.148438 C 262.359375 103.007812 262.113281 102.886719 261.855469 102.792969 L 242.226562 95.636719 C 241.96875 95.542969 241.703125 95.472656 241.433594 95.429688 C 241.160156 95.390625 240.886719 95.375 240.613281 95.386719 C 240.339844 95.398438 240.066406 95.4375 239.800781 95.5 C 239.535156 95.566406 239.277344 95.65625 239.027344 95.773438 C 238.777344 95.890625 238.542969 96.027344 238.320312 96.191406 C 238.097656 96.351562 237.894531 96.535156 237.710938 96.738281 C 237.523438 96.941406 237.359375 97.160156 237.21875 97.394531 C 237.074219 97.628906 236.957031 97.875 236.863281 98.132812 L 230.488281 115.605469 C 230.25 116.269531 230.179688 116.945312 230.28125 117.644531 C 230.382812 118.339844 230.640625 118.972656 231.0625 119.535156 Z M 243.289062 104.929688 L 255.058594 109.222656 L 250.890625 120.648438 L 243.59375 122.375 L 239.125 116.359375 Z M 243.289062 104.929688 " fill-opacity="1" fill-rule="nonzero"/><path fill="#ffffff" d="M 224.75 56.667969 C 224.808594 56.71875 224.867188 56.769531 224.929688 56.816406 C 225.925781 57.625 227.0625 58.023438 228.347656 58.023438 L 228.421875 58.023438 C 228.484375 58.023438 228.546875 58.023438 228.613281 58.019531 C 247.285156 57.164062 257.148438 46.660156 258.640625 36.628906 L 258.644531 36.597656 C 259.710938 29.035156 255.96875 22.378906 249.335938 20.039062 C 246.292969 19.042969 243.203125 18.855469 240.066406 19.476562 C 238.015625 16.941406 235.464844 15.105469 232.410156 13.96875 C 225.730469 11.609375 218.636719 14.503906 214.765625 21.160156 C 209.601562 30 210.6875 44.410156 224.75 56.667969 Z M 221.996094 25.375 C 223.453125 22.871094 225.496094 21.515625 227.699219 21.515625 C 228.359375 21.519531 229.003906 21.632812 229.625 21.859375 C 231.46875 22.507812 233.289062 24.113281 234.894531 26.503906 C 235.140625 26.875 235.441406 27.199219 235.792969 27.472656 C 236.144531 27.746094 236.53125 27.960938 236.949219 28.109375 C 237.371094 28.261719 237.800781 28.34375 238.25 28.355469 C 238.695312 28.371094 239.132812 28.3125 239.558594 28.1875 C 242.257812 27.382812 244.738281 27.292969 246.550781 27.933594 C 249.445312 28.953125 250.867188 31.75 250.355469 35.414062 C 249.390625 41.859375 242.542969 48.628906 229.390625 49.589844 C 219.726562 40.683594 218.660156 31.082031 221.996094 25.375 Z M 221.996094 25.375 " fill-opacity="1" fill-rule="nonzero"/><path fill="#ffffff" d="M 278.804688 151.445312 C 273.640625 160.285156 274.722656 174.695312 288.789062 186.953125 C 288.847656 187.003906 288.90625 187.054688 288.96875 187.101562 C 289.964844 187.910156 291.105469 188.308594 292.386719 188.308594 L 292.460938 188.308594 C 292.523438 188.308594 292.589844 188.308594 292.652344 188.304688 C 311.324219 187.449219 321.1875 176.945312 322.679688 166.914062 L 322.683594 166.882812 C 323.75 159.320312 320.007812 152.664062 313.375 150.324219 C 310.335938 149.328125 307.246094 149.140625 304.105469 149.761719 C 302.058594 147.226562 299.503906 145.390625 296.449219 144.253906 C 289.769531 141.894531 282.675781 144.789062 278.804688 151.445312 Z M 286.035156 155.660156 C 287.492188 153.15625 289.535156 151.800781 291.738281 151.800781 C 292.398438 151.804688 293.042969 151.917969 293.664062 152.144531 C 295.507812 152.792969 297.332031 154.398438 298.933594 156.789062 C 299.179688 157.160156 299.480469 157.484375 299.832031 157.757812 C 300.183594 158.03125 300.570312 158.246094 300.988281 158.394531 C 301.410156 158.546875 301.84375 158.628906 302.289062 158.640625 C 302.734375 158.65625 303.171875 158.597656 303.597656 158.472656 C 306.296875 157.667969 308.78125 157.578125 310.589844 158.21875 C 313.484375 159.238281 314.910156 162.035156 314.398438 165.699219 C 313.429688 172.144531 306.578125 178.914062 293.429688 179.875 C 283.765625 170.96875 282.703125 161.367188 286.035156 155.660156 Z M 286.035156 155.660156 " fill-opacity="1" fill-rule="nonzero"/><path fill="#ffffff" d="M 82.058594 184.71875 C 83.140625 184.71875 84.257812 184.679688 85.40625 184.601562 C 85.480469 184.597656 85.558594 184.589844 85.636719 184.578125 C 86.910156 184.445312 88 183.925781 88.902344 183.015625 C 88.96875 182.953125 89.027344 182.890625 89.089844 182.828125 C 101.6875 169.019531 101.234375 154.617188 95.195312 146.46875 L 95.179688 146.445312 C 90.585938 140.34375 83.234375 138.285156 76.886719 141.316406 C 74.03125 142.761719 71.714844 144.816406 69.9375 147.476562 C 66.695312 147.128906 63.589844 147.636719 60.625 148.988281 C 54.234375 152.046875 51.265625 159.109375 53.234375 166.554688 C 55.671875 175.847656 65.472656 184.71875 82.058594 184.71875 Z M 64.234375 156.539062 C 65.464844 155.992188 66.753906 155.738281 68.101562 155.773438 C 69.160156 155.78125 70.207031 155.890625 71.242188 156.101562 C 71.679688 156.1875 72.121094 156.203125 72.5625 156.148438 C 73.003906 156.09375 73.429688 155.972656 73.832031 155.78125 C 74.234375 155.59375 74.601562 155.34375 74.925781 155.039062 C 75.25 154.730469 75.515625 154.382812 75.730469 153.992188 C 77.070312 151.515625 78.761719 149.695312 80.492188 148.867188 C 83.265625 147.542969 86.246094 148.515625 88.476562 151.464844 C 92.351562 156.707031 92.292969 166.335938 83.671875 176.316406 C 70.535156 176.851562 63 170.8125 61.324219 164.421875 C 60.371094 160.8125 61.460938 157.867188 64.234375 156.539062 Z M 64.234375 156.539062 " fill-opacity="1" fill-rule="nonzero"/></svg>