<svg xmlns="http://www.w3.org/2000/svg" xmlns:xlink="http://www.w3.org/1999/xlink" width="500" zoomAndPan="magnify" viewBox="0 0 375 374.999991" height="500" preserveAspectRatio="xMidYMid meet" version="1.0"><defs><clipPath id="64c3317f93"><path d="M 18.957031 40.53125 L 355.707031 40.53125 L 355.707031 334.53125 L 18.957031 334.53125 Z M 18.957031 40.53125 " clip-rule="nonzero"/></clipPath></defs><g clip-path="url(#64c3317f93)"><path fill="#ffffff" d="M 356.019531 122.585938 C 356.042969 116.917969 353.261719 111.394531 348.25 108.128906 L 284.253906 66.382812 C 281.390625 64.433594 278.230469 63.058594 274.851562 62.300781 L 245.726562 55.738281 C 244.5 53.976562 242.953125 52.4375 241.140625 51.210938 L 226.851562 41.597656 C 225.832031 40.90625 224.613281 40.578125 223.507812 40.582031 C 223.238281 40.582031 205.519531 40.582031 187.734375 40.582031 C 187.585938 40.582031 187.433594 40.582031 187.28125 40.582031 C 169.5 40.582031 151.777344 40.582031 151.507812 40.582031 C 150.402344 40.578125 149.1875 40.910156 148.164062 41.597656 L 133.882812 51.207031 C 132.0625 52.433594 130.519531 53.972656 129.292969 55.734375 L 100.167969 62.296875 C 96.792969 63.054688 93.628906 64.429688 90.765625 66.378906 L 26.761719 108.128906 C 21.753906 111.394531 18.972656 116.921875 18.992188 122.585938 C 18.972656 125.1875 19.53125 127.832031 20.753906 130.300781 L 28.152344 145.316406 L 40.496094 170.730469 C 42.941406 175.765625 47.472656 179.003906 52.480469 180.035156 C 56.84375 180.980469 61.5625 180.25 65.546875 177.609375 C 65.683594 177.523438 78.59375 169.160156 87.753906 163.445312 L 87.753906 315.226562 C 87.753906 325.796875 96.351562 334.394531 106.925781 334.394531 L 268.09375 334.394531 C 278.664062 334.394531 287.261719 325.796875 287.261719 315.226562 L 287.261719 163.449219 C 296.425781 169.164062 309.332031 177.527344 309.46875 177.613281 C 313.457031 180.253906 318.175781 180.988281 322.535156 180.039062 C 327.546875 179.007812 332.078125 175.769531 334.519531 170.734375 L 346.859375 145.320312 L 354.261719 130.304688 C 355.480469 127.832031 356.046875 125.191406 356.019531 122.585938 Z M 343.589844 124.777344 L 336.195312 140.011719 L 323.585938 165.59375 C 322.828125 167.128906 321.441406 168.105469 319.910156 168.410156 C 318.675781 168.605469 317.347656 168.363281 316.144531 167.566406 C 316 167.476562 301.625 158.191406 292.300781 152.453125 C 289.039062 150.445312 285.359375 150.359375 282.257812 151.640625 C 278.285156 153.234375 275.25 157.070312 275.25 161.964844 L 275.25 189.351562 C 275.25 189.699219 275.285156 190.035156 275.339844 190.367188 L 275.339844 216.265625 C 275.285156 216.59375 275.25 216.933594 275.25 217.28125 L 275.25 315.230469 C 275.25 319.230469 271.992188 322.484375 267.996094 322.484375 L 107.015625 322.484375 C 103.015625 322.484375 99.765625 319.226562 99.765625 315.230469 L 99.765625 217.277344 C 99.765625 216.929688 99.726562 216.59375 99.671875 216.261719 L 99.671875 190.363281 C 99.726562 190.03125 99.765625 189.695312 99.765625 189.347656 L 99.765625 161.964844 C 99.765625 157.0625 96.730469 153.230469 92.753906 151.636719 C 89.65625 150.359375 85.972656 150.441406 82.710938 152.449219 C 73.394531 158.1875 59.015625 167.472656 58.871094 167.5625 C 57.667969 168.359375 56.335938 168.601562 55.101562 168.40625 C 53.570312 168.101562 52.183594 167.125 51.429688 165.589844 L 38.816406 140.003906 L 31.417969 124.773438 C 31.085938 124.089844 30.921875 123.367188 30.902344 122.644531 C 30.929688 120.949219 31.773438 119.316406 33.269531 118.335938 L 97.585938 76.328125 C 97.621094 76.308594 97.660156 76.28125 97.695312 76.253906 C 99.324219 75.136719 101.128906 74.351562 103.054688 73.921875 L 125.980469 68.753906 L 125.667969 77.128906 C 125.351562 85.707031 129.847656 93.570312 137.394531 97.652344 L 137.828125 97.886719 C 138.148438 98.078125 138.460938 98.277344 138.789062 98.457031 L 175.371094 118.222656 C 177.984375 121.679688 182.746094 123.402344 187.507812 123.394531 C 192.265625 123.402344 197.03125 121.679688 199.640625 118.222656 L 236.226562 98.457031 C 236.554688 98.277344 236.867188 98.078125 237.183594 97.886719 L 237.617188 97.652344 C 245.167969 93.570312 249.660156 85.707031 249.34375 77.128906 L 249.035156 68.753906 L 271.960938 73.921875 C 273.886719 74.355469 275.6875 75.140625 277.316406 76.253906 C 277.355469 76.28125 277.390625 76.308594 277.429688 76.328125 L 341.738281 118.339844 C 343.238281 119.320312 344.082031 120.953125 344.105469 122.648438 C 344.089844 123.371094 343.925781 124.09375 343.589844 124.777344 Z M 167.601562 100.4375 L 143.652344 87.484375 C 140.179688 85.1875 138.375 81.046875 139.125 76.890625 C 140.515625 69.273438 141.628906 62.820312 141.882812 61.800781 C 142.253906 60.527344 143.074219 59.398438 144.1875 58.652344 L 148.8125 55.558594 L 162.882812 89.113281 Z M 226.203125 55.558594 L 230.832031 58.652344 C 231.945312 59.398438 232.761719 60.523438 233.136719 61.800781 C 233.390625 62.820312 234.503906 69.273438 235.894531 76.890625 C 236.640625 81.046875 234.839844 85.1875 231.363281 87.484375 L 207.414062 100.4375 L 212.136719 89.109375 Z M 214.496094 52.5 L 201.148438 84.5 L 190.03125 111.007812 C 189.480469 111.3125 188.496094 111.46875 187.507812 111.472656 C 186.519531 111.46875 185.535156 111.3125 184.980469 111.007812 L 173.871094 84.511719 L 160.519531 52.5 Z M 214.496094 52.5 " fill-opacity="1" fill-rule="nonzero"/></g></svg>