<svg xmlns="http://www.w3.org/2000/svg" xmlns:xlink="http://www.w3.org/1999/xlink" width="500" zoomAndPan="magnify" viewBox="0 0 375 374.999991" height="500" preserveAspectRatio="xMidYMid meet" version="1.0"><defs><clipPath id="0d8a45dfe0"><path d="M 16.777344 27.449219 L 358.027344 27.449219 L 358.027344 347.699219 L 16.777344 347.699219 Z M 16.777344 27.449219 " clip-rule="nonzero"/></clipPath></defs><g clip-path="url(#0d8a45dfe0)"><path fill="#ffffff" d="M 62.875 138.117188 L 56.429688 126.808594 L 204.867188 126.808594 L 198.421875 138.117188 Z M 212.253906 118.269531 L 155.785156 118.269531 C 155.9375 117.886719 156.023438 117.488281 156.042969 117.078125 L 156.042969 48.320312 L 268.589844 48.320312 L 268.589844 197.699219 L 205.167969 197.699219 L 205.167969 143.496094 L 215.921875 124.671875 C 216.304688 124.011719 216.496094 123.300781 216.496094 122.539062 C 216.496094 121.777344 216.304688 121.066406 215.921875 120.40625 C 215.539062 119.742188 215.015625 119.21875 214.351562 118.839844 C 213.6875 118.457031 212.976562 118.269531 212.210938 118.269531 Z M 253.480469 114.003906 L 221.640625 114.003906 L 221.640625 145.929688 L 253.523438 145.929688 Z M 221.640625 99.234375 L 253.566406 99.234375 L 253.566406 67.355469 L 221.640625 67.355469 Z M 203.289062 67.355469 L 171.238281 67.355469 L 171.238281 99.234375 L 203.117188 99.234375 Z M 252.371094 27.449219 L 172.261719 27.449219 L 172.261719 39.953125 L 252.371094 39.953125 Z M 358.214844 335.042969 L 358.214844 347.546875 L 16.777344 347.546875 L 16.777344 335.042969 L 64.621094 335.042969 L 64.621094 146.652344 L 196.632812 146.652344 L 196.632812 335.042969 L 205.167969 335.042969 L 205.167969 206.40625 L 303.03125 206.40625 L 303.03125 335.042969 Z M 258.601562 262.785156 L 290.484375 262.785156 L 290.484375 230.902344 L 258.601562 230.902344 Z M 258.601562 309.390625 L 290.484375 309.390625 L 290.484375 277.464844 L 258.601562 277.464844 Z M 216.863281 262.785156 L 248.785156 262.785156 L 248.785156 230.902344 L 216.863281 230.902344 Z M 216.863281 309.390625 L 248.785156 309.390625 L 248.785156 277.464844 L 216.863281 277.464844 Z M 141.488281 237.605469 L 166.15625 237.605469 L 166.15625 161.761719 L 141.488281 161.761719 Z M 95.351562 237.605469 L 119.808594 237.605469 L 119.808594 161.761719 L 95.351562 161.761719 Z M 91.085938 335.042969 L 99.621094 335.042969 L 99.621094 258.515625 L 126.378906 258.515625 L 126.378906 335.042969 L 134.917969 335.042969 L 134.917969 258.515625 L 161.890625 258.515625 L 161.890625 335.042969 L 170.425781 335.042969 L 170.425781 254.25 C 170.425781 253.96875 170.398438 253.691406 170.34375 253.417969 C 170.289062 253.140625 170.207031 252.875 170.101562 252.617188 C 169.992188 252.355469 169.863281 252.109375 169.707031 251.878906 C 169.550781 251.644531 169.375 251.429688 169.175781 251.230469 C 168.976562 251.03125 168.761719 250.855469 168.527344 250.699219 C 168.296875 250.542969 168.050781 250.414062 167.792969 250.304688 C 167.53125 250.199219 167.265625 250.117188 166.992188 250.0625 C 166.714844 250.007812 166.4375 249.980469 166.15625 249.980469 L 95.351562 249.980469 C 95.070312 249.980469 94.792969 250.007812 94.519531 250.0625 C 94.246094 250.117188 93.976562 250.199219 93.71875 250.304688 C 93.460938 250.414062 93.214844 250.542969 92.980469 250.699219 C 92.75 250.855469 92.53125 251.03125 92.335938 251.230469 C 92.136719 251.429688 91.960938 251.644531 91.804688 251.878906 C 91.648438 252.109375 91.515625 252.355469 91.410156 252.617188 C 91.300781 252.875 91.222656 253.140625 91.167969 253.417969 C 91.113281 253.691406 91.085938 253.96875 91.085938 254.25 Z M 142.300781 304.867188 C 142.5625 304.867188 142.820312 304.839844 143.074219 304.789062 C 143.328125 304.738281 143.578125 304.664062 143.820312 304.566406 C 144.058594 304.464844 144.289062 304.34375 144.503906 304.199219 C 144.722656 304.054688 144.921875 303.890625 145.105469 303.703125 C 145.289062 303.519531 145.457031 303.320312 145.601562 303.101562 C 145.746094 302.886719 145.867188 302.65625 145.96875 302.417969 C 146.066406 302.175781 146.140625 301.929688 146.191406 301.671875 C 146.242188 301.417969 146.269531 301.160156 146.269531 300.898438 C 146.269531 300.636719 146.242188 300.378906 146.191406 300.125 C 146.140625 299.867188 146.066406 299.621094 145.96875 299.378906 C 145.867188 299.136719 145.746094 298.910156 145.601562 298.691406 C 145.457031 298.476562 145.289062 298.277344 145.105469 298.089844 C 144.921875 297.90625 144.722656 297.742188 144.503906 297.597656 C 144.289062 297.453125 144.058594 297.332031 143.820312 297.230469 C 143.578125 297.132812 143.328125 297.054688 143.074219 297.003906 C 142.820312 296.953125 142.5625 296.929688 142.300781 296.929688 C 142.039062 296.929688 141.78125 296.953125 141.527344 297.003906 C 141.269531 297.054688 141.023438 297.132812 140.78125 297.230469 C 140.539062 297.332031 140.3125 297.453125 140.09375 297.597656 C 139.878906 297.742188 139.675781 297.90625 139.492188 298.089844 C 139.308594 298.277344 139.144531 298.476562 139 298.691406 C 138.855469 298.910156 138.734375 299.136719 138.632812 299.378906 C 138.53125 299.621094 138.457031 299.867188 138.40625 300.125 C 138.355469 300.378906 138.332031 300.636719 138.332031 300.898438 C 138.332031 301.160156 138.355469 301.417969 138.40625 301.671875 C 138.457031 301.929688 138.53125 302.175781 138.632812 302.417969 C 138.734375 302.65625 138.855469 302.886719 139 303.101562 C 139.144531 303.320312 139.308594 303.519531 139.492188 303.703125 C 139.675781 303.890625 139.878906 304.054688 140.09375 304.199219 C 140.3125 304.34375 140.539062 304.464844 140.78125 304.566406 C 141.023438 304.664062 141.269531 304.738281 141.527344 304.789062 C 141.78125 304.839844 142.039062 304.867188 142.300781 304.867188 Z M 118.824219 304.867188 C 119.085938 304.867188 119.34375 304.839844 119.601562 304.789062 C 119.855469 304.738281 120.105469 304.664062 120.34375 304.566406 C 120.585938 304.464844 120.816406 304.34375 121.03125 304.199219 C 121.246094 304.054688 121.449219 303.890625 121.632812 303.703125 C 121.816406 303.519531 121.980469 303.320312 122.125 303.101562 C 122.269531 302.886719 122.394531 302.65625 122.492188 302.417969 C 122.59375 302.175781 122.667969 301.929688 122.71875 301.671875 C 122.769531 301.417969 122.796875 301.160156 122.796875 300.898438 C 122.796875 300.636719 122.769531 300.378906 122.71875 300.125 C 122.667969 299.867188 122.59375 299.621094 122.492188 299.378906 C 122.394531 299.136719 122.269531 298.910156 122.125 298.691406 C 121.980469 298.476562 121.816406 298.277344 121.632812 298.089844 C 121.449219 297.90625 121.246094 297.742188 121.03125 297.597656 C 120.816406 297.453125 120.585938 297.332031 120.34375 297.230469 C 120.105469 297.132812 119.855469 297.054688 119.601562 297.003906 C 119.34375 296.953125 119.085938 296.929688 118.824219 296.929688 C 118.566406 296.929688 118.308594 296.953125 118.050781 297.003906 C 117.796875 297.054688 117.546875 297.132812 117.308594 297.230469 C 117.066406 297.332031 116.835938 297.453125 116.621094 297.597656 C 116.402344 297.742188 116.203125 297.90625 116.019531 298.089844 C 115.835938 298.277344 115.671875 298.476562 115.527344 298.691406 C 115.382812 298.910156 115.257812 299.136719 115.160156 299.378906 C 115.058594 299.621094 114.984375 299.867188 114.933594 300.125 C 114.882812 300.378906 114.855469 300.636719 114.855469 300.898438 C 114.855469 301.160156 114.882812 301.417969 114.933594 301.671875 C 114.984375 301.929688 115.058594 302.175781 115.160156 302.417969 C 115.257812 302.65625 115.382812 302.886719 115.527344 303.101562 C 115.671875 303.320312 115.835938 303.519531 116.019531 303.703125 C 116.203125 303.890625 116.402344 304.054688 116.621094 304.199219 C 116.835938 304.34375 117.066406 304.464844 117.308594 304.566406 C 117.546875 304.664062 117.796875 304.738281 118.050781 304.789062 C 118.308594 304.839844 118.566406 304.867188 118.824219 304.867188 Z M 118.824219 304.867188 " fill-opacity="1" fill-rule="nonzero"/></g></svg>